<?xml version="1.0"?>
<svg xmlns="http://www.w3.org/2000/svg" xmlns:xlink="http://www.w3.org/1999/xlink" xmlns:svgjs="http://svgjs.com/svgjs" version="1.1" width="512" height="512" x="0" y="0" viewBox="0 0 64 64" style="enable-background:new 0 0 512 512" xml:space="preserve" class=""><g><g xmlns="http://www.w3.org/2000/svg"><path d="m60 4c-.771 0-1.468.301-2 .78-.532-.479-1.229-.78-2-.78h-6c-.771 0-1.468.301-2 .78-.532-.479-1.229-.78-2-.78-1.654 0-3 1.346-3 3v8c0 1.654 1.346 3 3 3 1.066 0 1.997-.563 2.53-1.403l.47.706v6.697c0 2.757-2.243 5-5 5h-10.698c1.123-4.337 1.698-8.797 1.698-13.28v-1.72c0-7.168-5.832-13-13-13s-13 5.832-13 13v1.72c0 4.511.583 8.998 1.72 13.361-5.464.637-9.72 5.287-9.72 10.919v7c0 3.309 2.691 6 6 6h3.917c-.181 2.246-.769 4.47-1.776 6.482l-1.759 3.518h29.236l-1.759-3.518c-1.216-2.433-1.859-5.156-1.859-7.876 0-1.636.228-3.264.678-4.838l.875-3.061c.297-1.04.447-2.115.447-3.196 0-1.19-.203-2.375-.562-3.511h9.562c7.168 0 13-5.832 13-13v-6.697l.47-.705c.532.839 1.464 1.402 2.53 1.402 1.654 0 3-1.346 3-3v-8c0-1.654-1.346-3-3-3zm-3 6v2h-2.184c.112-.314.184-.648.184-1s-.072-.686-.184-1zm-7-4h6c.551 0 1 .449 1 1s-.449 1-1 1h-6c-.551 0-1-.449-1-1s.449-1 1-1zm-3 9c0 .551-.449 1-1 1s-1-.449-1-1v-8c0-.551.449-1 1-1s1 .449 1 1zm-36-1c0-6.065 4.935-11 11-11s11 4.935 11 11v1.72c0 4.487-.6 8.95-1.768 13.28h-3.592c-.475 0-.888-.338-.981-.804l-.449-2.247c2.846-1.513 4.79-4.507 4.79-7.949v-5.819l-.901-.181c-2.817-.563-5.32-2.111-7.099-4.357v-2.643h-2v2.643c-1.779 2.247-4.283 3.794-7.099 4.357l-.901.181v5.819c0 3.442 1.944 6.436 4.791 7.949l-.449 2.247c-.094.466-.507.804-.982.804h-3.592c-1.168-4.331-1.768-8.793-1.768-13.28zm15 39c.551 0 1 .449 1 1s-.449 1-1 1h-8c-.551 0-1-.449-1-1s.449-1 1-1zm-3.171-8c-.301-.85-.978-1.522-1.829-1.824v-.176h2v2zm-10.932 0-.527-1.843c-.245-.861-.37-1.751-.37-2.646 0-1.488.352-2.978 1.017-4.309.643-1.286.983-2.725.983-4.163v-1.039h2v5c0 .804.19 1.578.55 2.279-.344.488-.55 1.08-.55 1.721 0 1.654 1.346 3 3 3h1v.165c-.526.161-1.014.435-1.414.835l-1 1zm10.103-35.427c1.846 2.05 4.258 3.515 7 4.223v4.204c0 3.86-3.14 7-7 7s-7-3.14-7-7v-4.199c2.707-.687 5.138-2.158 7-4.228zm-2.698 19.015.38-1.902c.741.198 1.516.314 2.318.314s1.577-.116 2.317-.314l.38 1.902c.236 1.182 1.161 2.083 2.302 2.334v5.078c0 .389-.081.763-.223 1.115-.248-.068-.506-.115-.776-.115h-3v-2h-2v2h-3c-.27 0-.528.047-.777.115-.142-.352-.223-.726-.223-1.115v-5.077c1.141-.252 2.066-1.152 2.302-2.335zm-1.302 12.412c-.551 0-1-.449-1-1s.449-1 1-1h8c.551 0 1 .449 1 1s-.449 1-1 1zm-15 6v-7c0-4.624 3.507-8.441 8-8.941v.98c0 1.129-.267 2.259-.772 3.269-.803 1.607-1.228 3.406-1.228 5.203 0 1.081.15 2.156.448 3.196l.369 1.293h-4.817v2h12.414l1.586-1.586c.263-.263.628-.414 1-.414.551 0 1 .449 1 1v1h2c1.103 0 2 .897 2 2s-.897 2-2 2h-16c-2.206 0-4-1.794-4-4zm29.629-3.843-.875 3.062c-.5 1.753-.754 3.565-.754 5.387 0 3.028.716 6.061 2.07 8.771l.312.623h-22.764l.312-.623c1.145-2.289 1.833-4.821 2.018-7.377h2.224c-.111.313-.172.649-.172 1 0 1.654 1.346 3 3 3h8c1.654 0 3-1.346 3-3 0-1.51-1.125-2.751-2.58-2.958.36-.6.58-1.293.58-2.042 0-1.474-.81-2.75-2-3.444v-2.556h1c1.654 0 3-1.346 3-3 0-.641-.206-1.233-.55-1.721.36-.701.55-1.475.55-2.279v-5h2v1.039c0 1.438.34 2.877.983 4.163.665 1.331 1.017 2.821 1.017 4.309 0 .895-.125 1.785-.371 2.646zm22.371-19.157c0 6.065-4.935 11-11 11h-10.36c-.412-.93-.64-1.944-.64-2.961v-1.039h11c3.86 0 7-3.14 7-7v-7.303l-1.832-2.749c-.11-.164-.168-.355-.168-.553v-2.395c0-.551.449-1 1-1h2c.551 0 1 .449 1 1s-.449 1-1 1h-1v2h5.798l-1.798 2.697zm6-9c0 .551-.449 1-1 1s-1-.449-1-1v-8c0-.551.449-1 1-1s1 .449 1 1z" fill="#ffffff" data-original="#000000" style="" class=""/><circle cx="18" cy="16" r="1" fill="#ffffff" data-original="#000000" style="" class=""/><circle cx="26" cy="16" r="1" fill="#ffffff" data-original="#000000" style="" class=""/><path d="m18.211 20.658c.722 1.445 2.174 2.342 3.789 2.342s3.067-.897 3.789-2.342l.105-.211-1.789-.895-.105.212c-.381.762-1.147 1.236-2 1.236s-1.619-.474-2-1.236l-.105-.211-1.789.895z" fill="#ffffff" data-original="#000000" style="" class=""/></g></g></svg>
