<?xml version="1.0"?>
<svg xmlns="http://www.w3.org/2000/svg" xmlns:xlink="http://www.w3.org/1999/xlink" xmlns:svgjs="http://svgjs.com/svgjs" version="1.1" width="512" height="512" x="0" y="0" viewBox="0 0 60 60" style="enable-background:new 0 0 512 512" xml:space="preserve" class=""><g><g xmlns="http://www.w3.org/2000/svg" id="Page-1" fill="none" fill-rule="evenodd"><g id="015---Email-Address" fill="rgb(0,0,0)" fill-rule="nonzero"><path id="Shape" d="m59.0791 23.8926c-.0043-.0059-.0111-.0084-.0155-.0142-.2116605-.2968499-.4553622-.5694926-.7267-.813l-11.0069-9.8654c-2.149523-7.79720361-9.2415899-13.19884381-17.3296573-13.19905383-8.0880673-.00021002-15.1804148 5.40106186-17.3303427 13.19815383l-11.0064 9.8654c-1.05903215.9487974-1.66401662 2.303612-1.6636 3.7255v28.21c.00325114 2.760076 2.23992404 4.9967489 5 5h50c2.760076-.0032511 4.9967489-2.239924 5-5v-28.21c-.0013506-1.0253586-.3176884-2.0255475-.9062-2.8652-.0068-.0101-.0075-.0223-.0147-.0322zm-1.0791 2.8974v28.21c.0005919.596095-.1773909 1.1787014-.511 1.6727l-20.96-15.1769 21.351-15.4976c.0754117.257339.1157754.5236724.12.7918zm-28-24.79c8.836556 0 16 7.163444 16 16s-7.163444 16-16 16-16-7.163444-16-16c.0100847-8.83237539 7.1676246-15.98991526 16-16zm-17.92 14.4114c-.0457.5245-.08 1.0523-.08 1.5886 0 9.9411255 8.0588745 18 18 18s18-8.0588745 18-18c0-.5356-.0344-1.0629-.08-1.5867l8.8416 7.9257-25.0575 18.1883c-1.0302102.7465894-2.4190132.7632143-3.4668.0415l-2.6609-1.8367-.0143-.01-22.8939-15.8032c.09947228-.1303562.20965501-.2521794.3294-.3642zm-9.5689 40.2613c-.33369479-.4939633-.51171753-1.0765863-.5111-1.6727l-.0000016-28.1129 21.3160016 14.7141zm2.4889 1.3273c-.25703048-.0035681-.51250581-.0405448-.76-.11l20.8221-15.084 2.04 1.4081c1.7459574 1.2030765 4.0605308 1.175473 5.7773-.0689l1.9474-1.4135 20.9332 15.1588c-.2475153.0692918-.502991.1061004-.76.1095z" fill="#ffffff" data-original="#000000" style=""/><path id="Shape" d="m17.1006 23.45c1.8111032 4.2936981 5.6404946 7.4043289 10.2142216 8.2970551 4.573727.8927261 9.2917837-.5495649 12.5845784-3.8470551.3789722-.3923789.3735524-1.0160848-.0121814-1.4018186s-1.0094397-.3911536-1.4018186-.0121814c-1.0931459 1.0963027-2.3887981 1.9698746-3.815 2.5722-2.9879408 1.2510036-6.3528592 1.2510036-9.3408 0-4.4412584-1.880017-7.3267374-6.2348165-7.3267374-11.0576s2.885479-9.17758296 7.3267374-11.0576c2.9879408-1.25100355 6.3528592-1.25100355 9.3408 0 4.4454879 1.87506283 7.3338342 6.2322507 7.3296 11.057v2.5c0 1.3807119-1.1192881 2.5-2.5 2.5s-2.5-1.1192881-2.5-2.5v-8.5c0-.5522847-.4477153-1-1-1s-1 .4477153-1 1v1.11c-2.0304124-2.0785072-5.1339041-2.6863075-7.7983714-1.5272645s-4.3356798 3.8438394-4.1993782 6.7462846c.1363015 2.9024453 2.0517654 5.4188079 4.8131264 6.323049 2.761361.904241 5.7942343.0082712 7.6209232-2.2513691.8882562 1.9124075 2.9874243 2.9492583 5.0459565 2.4923703 2.0585321-.456888 3.5219485-2.284449 3.5177435-4.3930703v-2.5c-.0025875-5.626151-3.3692528-10.70544474-8.55-12.8994-3.4862571-1.46098709-7.4131429-1.46098709-10.8994 0-7.1196874 3.01417577-10.4533325 11.2248318-7.45 18.3491zm12.8994-.45c-2.7614237 0-5-2.2385763-5-5s2.2385763-5 5-5 5 2.2385763 5 5c-.0032511 2.760076-2.239924 4.9967489-5 5z" fill="#ffffff" data-original="#000000" style=""/></g></g></g></svg>
