<?xml version="1.0"?>
<svg xmlns="http://www.w3.org/2000/svg" xmlns:xlink="http://www.w3.org/1999/xlink" xmlns:svgjs="http://svgjs.com/svgjs" version="1.1" width="512" height="512" x="0" y="0" viewBox="0 0 512 512" style="enable-background:new 0 0 512 512" xml:space="preserve"><g><g xmlns="http://www.w3.org/2000/svg" id="XMLID_320_"><g id="XMLID_1014_"><path id="XMLID_1058_" d="m502 127.5h-34v-66.5c0-18.748-15.252-34-34-34h-48c-18.748 0-34 15.252-34 34v38.967c-3.37-1.268-7.016-1.967-10.824-1.967-8.02 0-15.335 3.079-20.824 8.117-5.489-5.038-12.804-8.117-20.824-8.117s-15.335 3.079-20.824 8.117c-5.488-5.038-12.803-8.117-20.823-8.117s-15.335 3.079-20.824 8.117c-5.489-5.038-12.804-8.117-20.824-8.117-16.383 0-29.818 12.85-30.765 29h-25.468v-66c0-18.748-15.252-34-34-34h-48c-18.748 0-34 15.252-34 34v66.5h-34c-5.523 0-10 4.477-10 10v47c0 5.523 4.477 10 10 10h34v66.5c0 18.748 15.252 34 34 34h48c13.698 0 25.521-8.147 30.902-19.846 4.961 10.727 13.23 19.962 23.835 26.101l13.112 10.289v163.456c0 5.523 4.477 10 10 10s10-4.477 10-10v-168.32c0-3.071-1.411-5.971-3.827-7.867l-17.519-13.747c-.405-.318-.834-.604-1.283-.855-11.622-6.516-19.102-18.541-19.52-31.382-.014-.414-.02-.829-.02-1.245v-55.334c19.31-4.534 33.729-21.902 33.729-42.575v-24.851c0-5.968 4.856-10.824 10.824-10.824s10.824 4.855 10.824 10.824v43.345c0 5.523 4.477 10 10 10s10-4.477 10-10v-43.345c0-5.968 4.855-10.824 10.824-10.824s10.824 4.855 10.824 10.824v43.345c0 5.523 4.477 10 10 10s10-4.477 10-10v-43.345c0-5.968 4.855-10.824 10.824-10.824s10.824 4.855 10.824 10.824v43.345c0 5.523 4.477 10 10 10s10-4.477 10-10v-43.345c0-5.968 4.855-10.824 10.824-10.824s10.823 4.855 10.823 10.824v117.176c0 23.32-9.62 45.988-26.392 62.19-1.951 1.884-3.052 4.48-3.052 7.192v114.618c0 5.523 4.477 10 10 10s10-4.477 10-10v-110.499c9.091-9.54 16.278-20.692 21.279-32.753 5.957 5.136 13.701 8.252 22.165 8.252h48c18.748 0 34-15.252 34-34v-66.5h34c5.523 0 10-4.477 10-10v-47c0-5.523-4.477-10-10-10zm-482 47v-27h24v27zm120 86.5c0 7.72-6.28 14-14 14h-48c-7.72 0-14-6.28-14-14v-200c0-7.72 6.28-14 14-14h48c7.72 0 14 6.28 14 14zm32.075-86h-12.075v-28h25.409v6.674c0 9.358-5.446 17.465-13.334 21.326zm275.925 86c0 7.72-6.28 14-14 14h-48c-7.72 0-14-6.28-14-14v-200c0-7.72 6.28-14 14-14h48c7.72 0 14 6.28 14 14zm44-86.5h-24v-27h24z" fill="#ffffff" data-original="#000000" style=""/><path id="XMLID_1154_" d="m332.56 465c-2.64 0-5.21 1.07-7.07 2.93-1.87 1.86-2.93 4.44-2.93 7.07s1.06 5.21 2.93 7.07c1.86 1.86 4.43 2.93 7.07 2.93 2.63 0 5.21-1.07 7.07-2.93s2.93-4.44 2.93-7.07-1.07-5.21-2.93-7.07-4.44-2.93-7.07-2.93z" fill="#ffffff" data-original="#000000" style=""/></g></g></g></svg>
