<?xml version="1.0"?>
<svg xmlns="http://www.w3.org/2000/svg" xmlns:xlink="http://www.w3.org/1999/xlink" xmlns:svgjs="http://svgjs.com/svgjs" version="1.1" width="512" height="512" x="0" y="0" viewBox="0 0 512 512" style="enable-background:new 0 0 512 512" xml:space="preserve"><g><g xmlns="http://www.w3.org/2000/svg"><path d="m435.885 0h-107.072c-9.649 0-17.5 7.851-17.5 17.5v92.646h-41.959c-4.143 0-7.5 3.358-7.5 7.5s3.357 7.5 7.5 7.5h87.83c-1.337 3.287-2.08 6.876-2.08 10.638 0 2.398.302 4.726.865 6.951l-127.461 26.335-.665-6.145c-.445-4.118-4.14-7.1-8.264-6.649-4.118.446-7.095 4.146-6.648 8.264l1.546 14.28c.003.029.002.058.005.088l10.372 94.105c.387 3.507-.697 6.885-3.051 9.513-.971 1.084-2.099 1.954-3.33 2.618v-12.02c0-4.142-3.357-7.5-7.5-7.5s-7.5 3.358-7.5 7.5v13.477h-12.271v-13.477c0-4.142-3.357-7.5-7.5-7.5s-7.5 3.358-7.5 7.5v13.477h-12.271v-13.477c0-4.142-3.357-7.5-7.5-7.5s-7.5 3.358-7.5 7.5v13.477h-12.271v-13.477c0-4.142-3.357-7.5-7.5-7.5s-7.5 3.358-7.5 7.5v11.762c-1.046-.625-2.009-1.409-2.854-2.351-2.353-2.622-3.44-5.995-3.062-9.497l.748-6.912 12.054-101.511c.489-4.113-2.449-7.844-6.563-8.332-4.111-.487-7.844 2.449-8.332 6.563l-4.451 37.489-6.112-5.686c-3.032-2.822-7.778-2.649-10.6.383-2.821 3.033-2.65 7.778.383 10.6l14.138 13.152-3.623 30.508-23.676-23.098c-5.692-5.552-7.602-13.962-4.864-21.428l18.076-49.302c3.765-10.27 12.27-18.273 22.749-21.408l30.843-9.226c3.175-.95 5.351-3.871 5.351-7.186v-9.172c4.212 1.462 8.728 2.268 13.432 2.268s9.22-.805 13.433-2.268v9.173c0 4.142 3.357 7.5 7.5 7.5h47.73c4.143 0 7.5-3.358 7.5-7.5s-3.357-7.5-7.5-7.5h-40.23v-10.882c7.777-7.476 12.631-17.971 12.631-29.585v-9.558c0-1.99-.18-3.954-.518-5.884 2.837-2.857 9.224-10.755 9.224-24.009 0-14.82-11.117-26.877-24.782-26.877-5.379 0-10.489 1.872-14.679 5.213-6.487-5.078-15.368-8.119-25.458-8.119-8.891 0-18.099 3.985-24.324 7.377-4.299-2.34-8.883-2.208-12.411.403-7.717 5.711-5.971 20.187-4.75 24.809 2.514 9.516 8.118 16.918 16.005 21.663-.287 1.785-.433 3.596-.433 5.422v9.558c0 11.614 4.855 22.11 12.632 29.586v12.797l-25.492 7.625c-14.987 4.483-27.149 15.928-32.534 30.616l-18.076 49.301c-4.768 13.005-1.441 27.658 8.474 37.329l31.958 31.173-.359 3.319c-.74 6.843 1.155 13.698 5.225 19.178.339 14.9 1.36 31.884 3.046 50.543.353 3.896 3.624 6.825 7.461 6.825.226 0 .455-.01.684-.031 4.126-.373 7.168-4.02 6.795-8.145-1.27-14.043-2.156-27.106-2.652-38.999 2.119.524 4.308.805 6.528.805h34.647v169.082h-20.651c-4.178-24.175-9.798-59.245-14.175-95.902-.491-4.114-4.226-7.045-8.337-6.558-4.112.491-7.049 4.224-6.558 8.336 6.308 52.824 15.174 102.385 18.692 121.242 1.536 8.227 8.728 14.198 17.1 14.198h42.858c8.372 0 15.563-5.971 17.1-14.199 5.553-29.765 23.679-132.004 25.469-206.571 4.412-5.594 6.483-12.736 5.698-19.859l-9.624-87.321 81.173-16.772v48.103c0 4.142 3.357 7.5 7.5 7.5s7.5-3.358 7.5-7.5v-51.203l37.705-7.791c5.077 4.788 11.91 7.732 19.423 7.732 15.625 0 28.337-12.712 28.337-28.337s-12.712-28.337-28.337-28.337c-4.309 0-8.394.971-12.055 2.699h-45.073v-92.64c0-1.378 1.121-2.5 2.5-2.5h107.071c1.379 0 2.5 1.122 2.5 2.5v16.695h-21.808c-4.143 0-7.5 3.358-7.5 7.5s3.357 7.5 7.5 7.5h21.808v24.141h-11.808c-4.143 0-7.5 3.358-7.5 7.5s3.357 7.5 7.5 7.5h11.808v24.141h-11.808c-4.143 0-7.5 3.358-7.5 7.5s3.357 7.5 7.5 7.5h11.808v24.141h-11.808c-4.143 0-7.5 3.358-7.5 7.5s3.357 7.5 7.5 7.5h11.808v24.141h-21.808c-4.143 0-7.5 3.358-7.5 7.5s3.357 7.5 7.5 7.5h21.808v24.141h-11.808c-4.143 0-7.5 3.358-7.5 7.5s3.357 7.5 7.5 7.5h11.808v24.141h-11.808c-4.143 0-7.5 3.358-7.5 7.5s3.357 7.5 7.5 7.5h11.808v24.141h-11.808c-4.143 0-7.5 3.358-7.5 7.5s3.357 7.5 7.5 7.5h11.808v24.141h-21.808c-4.143 0-7.5 3.358-7.5 7.5s3.357 7.5 7.5 7.5h21.808v24.141h-11.808c-4.143 0-7.5 3.358-7.5 7.5s3.357 7.5 7.5 7.5h11.808v24.141h-11.808c-4.143 0-7.5 3.358-7.5 7.5s3.357 7.5 7.5 7.5h11.808v24.141h-11.808c-4.143 0-7.5 3.358-7.5 7.5s3.357 7.5 7.5 7.5h11.808v14.754c0 1.378-1.121 2.5-2.5 2.5h-107.075c-1.379 0-2.5-1.122-2.5-2.5v-243.723c0-4.142-3.357-7.5-7.5-7.5s-7.5 3.358-7.5 7.5v243.723c0 9.649 7.851 17.5 17.5 17.5h107.071c9.649 0 17.5-7.851 17.5-17.5v-477c.001-9.649-7.85-17.5-17.499-17.5zm-235.82 30.227c0 5.759-1.994 9.66-3.493 11.778-4.836-.303-8.66-1.317-11.352-2.972.966-2.677 1.493-5.512 1.493-8.463 0-3.578-.691-6.968-1.96-10.101 1.617-1.355 3.542-2.119 5.53-2.119 5.394 0 9.782 5.328 9.782 11.877zm-77.473-7.399c2.449.633 5.896.641 10.24-1.743 6.632-3.637 12.781-5.64 17.314-5.64 12.295 0 21.566 6.502 21.566 15.125 0 8.199-10.749 15.125-23.473 15.125-13.361 0-22.267-5.857-25.076-16.491-.517-1.958-.66-4.389-.571-6.376zm25.648 37.867c11.254 0 21.229-3.606 28.204-9.449 3.929 2.636 8.796 4.386 14.563 5.241.23 1.188.352 2.4.352 3.632v9.558c0 14.372-11.692 26.063-26.063 26.063s-26.063-11.692-26.063-26.063v-9.557c0-.054.006-.107.006-.16 2.858.485 5.864.735 9.001.735zm29.328 240.906h35.114c2.055 0 4.085-.24 6.057-.691-2.406 57.727-13.474 129.015-20.518 169.773h-20.653zm-31.282 193.448c-.479-2.566-1.061-5.724-1.719-9.366h18.001v11.317h-13.928c-1.154 0-2.143-.821-2.354-1.951zm45.212 1.951h-13.93v-11.316h18.002c-.655 3.626-1.236 6.778-1.719 9.366-.21 1.129-1.2 1.95-2.353 1.95zm205.28-361.216c0 7.354-5.983 13.337-13.337 13.337s-13.337-5.983-13.337-13.337 5.983-13.337 13.337-13.337 13.337 5.983 13.337 13.337z" fill="#2064fe" data-original="#000000" style=""/><path d="m365.701 458.863v-16.43c0-4.142-3.357-7.5-7.5-7.5s-7.5 3.358-7.5 7.5v16.43c0 4.142 3.357 7.5 7.5 7.5s7.5-3.358 7.5-7.5z" fill="#2064fe" data-original="#000000" style=""/><path d="m390.953 458.863v-82.75c0-4.142-3.357-7.5-7.5-7.5s-7.5 3.358-7.5 7.5v82.75c0 4.142 3.357 7.5 7.5 7.5s7.5-3.358 7.5-7.5z" fill="#2064fe" data-original="#000000" style=""/><path d="m175.309 151.977h-10.482c-4.143 0-7.5 3.358-7.5 7.5s3.357 7.5 7.5 7.5h10.482c4.143 0 7.5-3.358 7.5-7.5s-3.358-7.5-7.5-7.5z" fill="#2064fe" data-original="#000000" style=""/></g></g></svg>
