<?xml version="1.0"?>
<svg xmlns="http://www.w3.org/2000/svg" xmlns:xlink="http://www.w3.org/1999/xlink" xmlns:svgjs="http://svgjs.com/svgjs" version="1.1" width="512" height="512" x="0" y="0" viewBox="0 0 512 512" style="enable-background:new 0 0 512 512" xml:space="preserve"><g><g xmlns="http://www.w3.org/2000/svg" id="XMLID_106_"><g id="XMLID_1092_"><path id="XMLID_1160_" d="m391.092 239.512c-1.882-2.591-4.89-4.124-8.092-4.124s-6.21 1.533-8.092 4.124l-35.273 48.571c-15.581 21.456-13.281 50.638 5.469 69.388 10.123 10.122 23.581 15.697 37.896 15.697s27.773-5.575 37.896-15.697c18.75-18.75 21.05-47.932 5.469-69.388zm15.662 103.817c-13.098 13.099-34.41 13.099-47.508 0-11.753-11.752-13.194-30.044-3.428-43.494l27.182-37.429 27.182 37.429c9.766 13.449 8.325 31.741-3.428 43.494z" fill="#ffffff" data-original="#000000" style=""/><path id="XMLID_1186_" d="m445 105.006v-26.756c0-16.68-13.57-30.25-30.25-30.25h-1.75v-18c0-16.542-13.458-30-30-30s-30 13.458-30 30v18h-1.75c-16.68 0-30.25 13.57-30.25 30.25v26.756c-22.795 4.646-40 24.847-40 48.994v137.55c-21.182-20.699-50.069-32.097-81.367-32.097-5.71 0-11.392.47-17.004 1.378 5.784-22.585 26.308-39.331 50.671-39.331 5.523 0 10-4.477 10-10s-4.477-10-10-10c-19.376 0-36.982 7.676-49.977 20.129-1.324-4.263-3.116-8.412-5.403-12.373-8.053-13.949-21.057-23.927-36.615-28.095l-20.445-5.479c-5.337-1.43-10.818 1.736-12.248 7.071l-5.479 20.446c-5.794 21.625.998 43.698 15.849 58.446-22.21 4.241-42.323 14.543-58.125 30.04-21.832 21.413-33.857 51.483-33.857 84.673 0 17.517 3.956 35.125 11.757 52.337 2.279 5.03 8.207 7.26 13.236 4.979 5.03-2.28 7.26-8.206 4.979-13.236-6.617-14.6-9.973-29.431-9.973-44.08 0-56.151 40.107-96.906 95.367-96.906 8.713 0 17.347 1.311 25.664 3.897 1.934.602 4.005.602 5.938 0 8.317-2.586 16.951-3.897 25.664-3.897 55.259 0 95.367 40.755 95.367 96.906 0 27.856-12.492 57.025-34.272 80.026-21.433 22.635-48.185 35.616-73.394 35.616-4.955 0-9.846-.434-14.538-1.29-1.187-.217-2.402-.217-3.589 0-4.692.855-9.583 1.29-14.538 1.29-13.883 0-28.664-4.068-42.745-11.766-4.844-2.649-10.921-.868-13.571 3.978-2.649 4.846-.868 10.922 3.978 13.571 17.014 9.301 35.112 14.217 52.337 14.217 5.531 0 11.016-.438 16.333-1.305 5.316.866 10.802 1.305 16.333 1.305 30.679 0 62.723-15.259 87.917-41.864 2.002-2.114 3.928-4.28 5.793-6.484.875 26.807 22.941 48.348 49.957 48.348h104c27.57 0 50-22.43 50-50v-308c0-24.146-17.205-44.348-40-48.994zm-322.546 103.369 2.89-10.786 10.787 2.89c10.397 2.786 19.088 9.455 24.471 18.777 5.382 9.322 6.812 20.183 4.026 30.581l-2.89 10.786-10.786-2.89c-21.466-5.751-34.249-27.893-28.498-49.358zm250.546-178.375c0-5.514 4.486-10 10-10s10 4.486 10 10v18h-20zm-32 48.25c0-5.652 4.598-10.25 10.25-10.25h63.5c5.652 0 10.25 4.598 10.25 10.25v25.75h-84zm124 383.75c0 16.542-13.458 30-30 30h-104c-16.542 0-30-13.458-30-30v-28.611c9.084-18.286 14-37.871 14-57.031 0-21.087-4.86-40.91-14-58.058v-164.3c0-16.542 13.458-30 30-30h104c16.542 0 30 13.458 30 30z" fill="#ffffff" data-original="#000000" style=""/><path id="XMLID_1192_" d="m72.84 452c-2.63 0-5.21 1.07-7.07 2.93s-2.93 4.44-2.93 7.07 1.07 5.21 2.93 7.07 4.44 2.93 7.07 2.93c2.64 0 5.21-1.07 7.07-2.93 1.87-1.86 2.93-4.44 2.93-7.07s-1.06-5.21-2.93-7.07c-1.85-1.86-4.43-2.93-7.07-2.93z" fill="#ffffff" data-original="#000000" style=""/></g></g></g></svg>
