<?xml version="1.0"?>
<svg xmlns="http://www.w3.org/2000/svg" xmlns:xlink="http://www.w3.org/1999/xlink" xmlns:svgjs="http://svgjs.com/svgjs" version="1.1" width="512" height="512" x="0" y="0" viewBox="0 0 512 512" style="enable-background:new 0 0 512 512" xml:space="preserve"><g><g xmlns="http://www.w3.org/2000/svg" id="XMLID_1022_"><g id="XMLID_1209_"><path id="XMLID_1337_" d="m462 0h-412c-27.57 0-50 22.43-50 50v412c0 27.57 22.43 50 50 50h412c27.57 0 50-22.43 50-50v-412c0-27.57-22.43-50-50-50zm30 462c0 16.542-13.458 30-30 30h-412c-16.542 0-30-13.458-30-30v-412c0-16.542 13.458-30 30-30h412c16.542 0 30 13.458 30 30z" fill="#ffffff" data-original="#000000" style=""/><path id="XMLID_1345_" d="m458 44h-404c-5.522 0-10 4.477-10 10v404c0 5.523 4.478 10 10 10h157.063c5.522 0 10-4.477 10-10s-4.478-10-10-10h-147.063v-384h384v384h-146.937c-5.522 0-10 4.477-10 10s4.478 10 10 10h156.937c5.522 0 10-4.477 10-10v-404c0-5.523-4.478-10-10-10z" fill="#ffffff" data-original="#000000" style=""/><path id="XMLID_1349_" d="m98 140.333c5.522 0 10-4.477 10-10v-22.333h22.333c5.522 0 10-4.477 10-10s-4.478-10-10-10h-32.333c-5.522 0-10 4.477-10 10v32.333c0 5.523 4.478 10 10 10z" fill="#ffffff" data-original="#000000" style=""/><path id="XMLID_1350_" d="m424 98c0-5.523-4.478-10-10-10h-32.333c-5.522 0-10 4.477-10 10s4.478 10 10 10h22.333v22.333c0 5.523 4.478 10 10 10s10-4.477 10-10z" fill="#ffffff" data-original="#000000" style=""/><path id="XMLID_1352_" d="m88 414c0 5.523 4.478 10 10 10h32.333c5.522 0 10-4.477 10-10s-4.478-10-10-10h-22.333v-22.333c0-5.523-4.478-10-10-10s-10 4.477-10 10z" fill="#ffffff" data-original="#000000" style=""/><path id="XMLID_1357_" d="m414 371.667c-5.522 0-10 4.477-10 10v22.333h-22.333c-5.522 0-10 4.477-10 10s4.478 10 10 10h32.333c5.522 0 10-4.477 10-10v-32.333c0-5.523-4.478-10-10-10z" fill="#ffffff" data-original="#000000" style=""/><path id="XMLID_1363_" d="m362.333 214.333c5.522 0 10-4.477 10-10 0-64.146-52.187-116.333-116.333-116.333s-116.333 52.187-116.333 116.333c0 5.523 4.478 10 10 10h75.942c4.21 12.761 16.239 22 30.391 22s26.181-9.239 30.391-22zm-10.516-20h-65.426c-.503-1.525-1.118-2.999-1.835-4.414l46.221-46.221c11.483 14.136 19.065 31.561 21.04 50.635zm-95.817-86.333c22.965 0 44.068 8.09 60.639 21.552l-46.225 46.225c-4.335-2.197-9.23-3.444-14.414-3.444-14.153 0-26.181 9.239-30.391 22h-65.426c5.016-48.438 46.074-86.333 95.817-86.333zm0 108.333c-6.617 0-12-5.383-12-12s5.383-12 12-12 12 5.383 12 12-5.383 12-12 12z" fill="#ffffff" data-original="#000000" style=""/><path id="XMLID_1371_" d="m256.06 448.06c-2.63 0-5.21 1.07-7.069 2.93-1.86 1.86-2.931 4.44-2.931 7.07 0 2.64 1.07 5.21 2.931 7.07 1.869 1.87 4.439 2.93 7.069 2.93 2.641 0 5.21-1.06 7.07-2.93 1.87-1.86 2.93-4.44 2.93-7.07s-1.06-5.21-2.93-7.07c-1.86-1.86-4.43-2.93-7.07-2.93z" fill="#ffffff" data-original="#000000" style=""/></g></g></g></svg>
